<svg width="40" height="36" viewBox="0 0 40 36" fill="none" xmlns="http://www.w3.org/2000/svg">
<path d="M22.7161 0.716064C13.1883 0.716064 5.4403 8.4722 5.4403 18V18.0571L2.01944 12.9054C1.6847 12.3992 0.998893 12.2605 0.492703 12.5952C-0.0134861 12.9299 -0.15228 13.6157 0.182458 14.1219L5.14638 21.5923C5.326 21.8617 5.61175 22.0332 5.93016 22.074C5.97915 22.0822 6.01997 22.0822 6.06895 22.0822C6.33838 22.0822 6.59964 21.9842 6.80374 21.7964L13.7026 15.5833C14.1517 15.1751 14.1925 14.4812 13.7843 14.024C13.376 13.5749 12.6821 13.5341 12.2249 13.9423L7.64467 18.0816V18C7.64467 9.68052 14.4048 2.92044 22.7161 2.92044C31.0274 2.92044 37.7956 9.68052 37.7956 18C37.7956 26.3195 31.0355 33.0795 22.7242 33.0795C18.6992 33.0795 14.9109 31.512 12.0697 28.6626C11.637 28.2299 10.9431 28.2299 10.5104 28.6626C10.0776 29.0953 10.0776 29.7893 10.5104 30.222C13.7761 33.4878 18.1114 35.2839 22.7242 35.2839C32.2439 35.2839 40 27.5359 40 18C40 8.46403 32.2439 0.716064 22.7161 0.716064Z" fill="#7DBFFF"/>
</svg>
