<svg width="155" height="18" viewBox="0 0 155 18" fill="none" xmlns="http://www.w3.org/2000/svg">
<path d="M120.885 3.52406L122.019 0.933683H114.608L113.691 2.99359C113.62 3.17772 113.491 3.33057 113.328 3.42726C113.151 3.52163 112.954 3.56692 112.757 3.55891H112.699L111.76 5.68851H112.488L111.397 8.21693C111.364 8.31373 111.331 8.41053 111.295 8.50733V8.5267V8.54993L108.967 13.8894C108.839 14.2038 108.77 14.5419 108.764 14.8845C108.759 15.1811 108.828 15.4737 108.964 15.7325C109.087 15.9939 109.268 16.2198 109.491 16.3907C110.201 16.9528 111.069 17.2434 111.953 17.2155H114.953C115.259 17.1806 115.848 17.1419 116.71 17.0335H116.757L117.848 14.4741H117.71C117.361 14.4932 117.012 14.4433 116.681 14.327C116.591 14.2932 116.511 14.236 116.448 14.1605C116.401 14.0953 116.376 14.0144 116.379 13.932C116.382 13.8356 116.403 13.7408 116.441 13.6532L119.954 5.68851H121.703L122.678 3.52406H120.885ZM12.3067 10.2149L12.2812 10.2691L10.9138 13.4558C10.8936 13.511 10.8564 13.5574 10.8084 13.5874C10.717 13.6491 10.6194 13.6998 10.5174 13.7384C10.2456 13.8436 9.95923 13.8998 9.67006 13.9049C9.40306 13.935 9.13503 13.8591 8.91726 13.692C8.87362 13.6571 8.85907 13.63 8.85907 13.6029C8.85928 13.5802 8.86701 13.5582 8.88089 13.5409L12.714 4.39526C12.8198 4.2331 12.9754 4.11534 13.154 4.06227C13.4138 3.96278 13.6892 3.91807 13.965 3.93062C14.239 3.91078 14.5125 3.97387 14.7542 4.1126C14.7742 4.13551 14.7925 4.16011 14.8088 4.18617C14.8121 4.19751 14.8121 4.20968 14.8088 4.22102C14.8088 4.22102 14.8088 4.22102 14.7906 4.26361L13.805 6.66039H23.1223L23.7297 5.25872L24.7297 2.87743L24.6716 2.83097C24.3479 2.54831 24.0206 2.30437 23.6969 2.05657C22.9218 1.56462 22.0971 1.16717 21.2385 0.87173C19.2795 0.285604 17.2507 0.00646934 15.2161 0.0431202H14.4887C12.28 -0.00969431 10.0799 0.353403 7.98989 1.11567C6.12425 1.81263 4.96777 2.71094 4.49863 3.79897L0.174563 13.9707C0.0636635 14.2381 0.00430326 14.5265 0 14.8187C0.0059108 15.1999 0.134254 15.5675 0.363673 15.8603C0.647034 16.2203 0.999108 16.512 1.3965 16.716C2.62208 17.4594 4.52045 17.8002 6.99343 17.8002H7.74259C9.63715 17.7777 11.5275 17.6043 13.3977 17.2813C15.3413 16.9678 17.2651 16.5282 19.1583 15.9648H19.1983L19.8056 14.5167C19.8444 14.385 19.8881 14.256 19.9365 14.1295L20.413 13.0608L21.6094 10.2149H12.3067ZM39.1276 9.09588L39.233 8.86743L39.7858 7.60128C39.8269 7.47689 39.8478 7.34595 39.8476 7.21408C39.8477 7.00106 39.784 6.79356 39.6658 6.62167C39.5239 6.41368 39.3462 6.23629 39.1421 6.09894C38.9503 5.95617 38.7426 5.83913 38.5239 5.75046C37.4328 5.2471 35.9491 4.97606 34.0907 4.97606H32.4542C31.8141 4.97606 31.2431 5.01865 30.6358 5.0535C29.5165 5.15827 28.4108 5.38931 27.3373 5.74272C26.7022 5.95575 26.0921 6.24545 25.5189 6.60618C25.114 6.84451 24.7849 7.20574 24.5734 7.64388L22.3913 12.5226L21.8604 13.7229L21.2639 15.1014C21.2465 15.1787 21.238 15.258 21.2385 15.3376C21.2438 15.619 21.3475 15.8883 21.5294 16.0926C21.7679 16.3586 22.0534 16.5718 22.3695 16.7199C22.4057 16.7419 22.445 16.7576 22.4859 16.7663L22.5732 16.7973C23.6642 17.3355 25.1516 17.5717 26.97 17.5717H28.6429C29.2498 17.5844 29.8569 17.5598 30.4612 17.4981C31.5809 17.398 32.6876 17.1734 33.7634 16.8283C35.2181 16.3172 36.1309 15.7402 36.52 15.0317L38.4548 10.6021L39.1276 9.09588ZM32.7378 7.93428L30.4358 13.1421L29.8503 14.5361C29.7903 14.6266 29.7009 14.6901 29.5993 14.7142C29.405 14.7696 29.204 14.7944 29.0029 14.7877C28.8237 14.787 28.6453 14.7622 28.4719 14.7142C28.4444 14.6936 28.4189 14.6703 28.3956 14.6445C28.3943 14.6355 28.3943 14.6263 28.3956 14.6174L30.6722 9.43275L31.2904 8.03108C31.3122 7.97687 31.3886 7.91105 31.5377 7.86071C31.7454 7.80354 31.9596 7.77748 32.1741 7.78327C32.3309 7.77932 32.4874 7.79755 32.6396 7.83748C32.673 7.85011 32.7047 7.86702 32.7342 7.88781C32.7342 7.88781 32.7342 7.90717 32.7342 7.91105C32.7338 7.92424 32.7286 7.93676 32.7196 7.94589L32.7378 7.93428ZM93.373 7.12503C93.3578 6.88496 93.2863 6.6528 93.1649 6.44983C93.0436 6.24687 92.8763 6.07962 92.6784 5.96342C92.5614 5.90719 92.4494 5.8398 92.3438 5.76208C91.431 5.2471 90.049 4.98768 88.2343 4.98768H87.6815C86.3398 4.98911 85.001 5.1187 83.6811 5.37488C82.5918 5.59096 81.5204 5.89911 80.4771 6.29642C79.9786 6.4844 79.4926 6.7082 79.0225 6.96627H78.9934L77.986 9.21978H84.8485L85.3067 8.13175C85.3292 8.08521 85.3648 8.04732 85.4086 8.02333C85.4851 7.97588 85.5654 7.93572 85.6486 7.9033C85.8402 7.83358 86.0433 7.8072 86.245 7.82586C86.3382 7.81898 86.4318 7.81898 86.525 7.82586C86.5872 7.83314 86.6451 7.86326 86.6887 7.91105H86.7105C86.7326 7.91869 86.7526 7.93198 86.7687 7.94977C86.7687 7.94977 86.7687 7.94977 86.7687 7.98461C86.7711 8.00259 86.7711 8.02084 86.7687 8.03882L86.2195 9.3282L83.5866 9.96321L79.6516 10.8847C78.8194 11.091 78.017 11.4152 77.2659 11.8489C76.7478 12.14 76.2734 12.512 75.8585 12.9524C75.6028 13.2171 75.3825 13.5181 75.2039 13.8468C75.052 14.1819 74.9689 14.5475 74.9602 14.9194C74.9671 15.2305 75.0465 15.5349 75.1912 15.8052C75.3359 16.0756 75.5415 16.3034 75.7894 16.4682V16.5069L75.8258 16.5379C76.7022 17.1845 78.0878 17.5214 80.0189 17.5214C80.5915 17.4918 81.1615 17.4193 81.7245 17.3045C82.0257 17.2548 82.3234 17.1837 82.6155 17.0916C82.7182 17.0578 82.819 17.0177 82.9174 16.9715L82.8374 17.1845H89.1035L93.2566 7.68647C93.3333 7.51057 93.373 7.31896 93.373 7.12503ZM84.2448 13.9398C84.2016 13.9869 84.1496 14.0239 84.0921 14.0482C83.9451 14.1149 83.793 14.168 83.6375 14.2069L83.4484 14.2534H83.3902H83.372C82.9982 14.2946 82.6209 14.2264 82.281 14.0559C82.2337 14.0291 82.1937 13.9897 82.165 13.9415C82.1363 13.8933 82.1199 13.838 82.1173 13.781C82.1193 13.716 82.1355 13.6523 82.1646 13.5952C82.3064 13.3009 82.6846 13.0144 83.3393 12.8208L83.5684 12.7394C83.9866 12.662 84.4375 12.5575 84.8885 12.449L84.2448 13.9398ZM79.8225 0.941427H73.0146L72.8909 1.22796L72.6473 1.77778L71.5053 4.39913H78.3424L79.8225 0.941427ZM69.6397 3.79123L69.7452 3.54342L70.8907 0.941427H64.1446L62.1735 5.44457C61.1134 5.23101 60.0375 5.11956 58.9586 5.11158H58.3877C57.2217 5.11127 56.0682 5.36561 54.9982 5.85888C53.9072 6.34288 53.2381 6.9624 52.8853 7.68647L49.765 14.8148C49.6676 15.0162 49.6153 15.2389 49.6122 15.4653C49.6216 15.6936 49.6857 15.9156 49.7983 16.1101C49.911 16.3046 50.0685 16.4652 50.2559 16.5766C50.4093 16.7056 50.5781 16.8124 50.7578 16.8941C51.5269 17.187 52.342 17.3185 53.1581 17.2813C54.0163 17.2813 54.7946 17.2387 55.4856 17.1923C56.1838 17.1071 56.7148 17.0219 57.1221 16.9754C57.2663 16.9986 57.4006 17.0674 57.5076 17.1729H57.5294H63.7773L64.141 16.3365L69.1888 4.77859L69.6397 3.79123ZM60.9479 8.21693L58.3004 14.2031C58.2261 14.3565 58.1058 14.4792 57.9585 14.5515C57.7519 14.6398 57.5301 14.6807 57.3076 14.6716C57.1508 14.6797 56.9941 14.656 56.8457 14.6019C56.8117 14.5866 56.7817 14.5627 56.7584 14.5322C56.7405 14.5095 56.7314 14.4804 56.733 14.4509C56.7372 14.3936 56.7533 14.338 56.7802 14.2882L59.4387 8.1666C59.543 8.01156 59.6851 7.88975 59.8496 7.81425C60.0339 7.73641 60.2297 7.69444 60.4279 7.69034C60.5226 7.68641 60.6173 7.6995 60.7079 7.72906C60.7775 7.75267 60.8376 7.80037 60.8788 7.86458C60.9051 7.88741 60.926 7.91645 60.9399 7.94938C60.9538 7.98231 60.9603 8.01824 60.9588 8.05431C60.9646 8.10844 60.9634 8.16316 60.9552 8.21693H60.9479ZM70.7671 6.05248L70.7453 6.10669L65.8975 17.2039H72.7455L77.6114 6.05248H70.7671ZM109.913 7.64C109.951 7.50568 109.971 7.36609 109.971 7.2257C109.972 6.97891 109.895 6.73888 109.753 6.54423C109.662 6.3688 109.528 6.22391 109.364 6.12605C108.771 5.63818 107.836 5.42134 106.498 5.42134C105.512 5.42201 104.527 5.48666 103.549 5.61494L101.541 5.84726C101.05 5.8976 100.737 5.9247 100.617 5.9247C100.544 5.92607 100.471 5.91827 100.399 5.90147C100.355 5.89237 100.313 5.871 100.279 5.83952C100.257 5.82593 100.239 5.80747 100.224 5.78541C100.21 5.76335 100.2 5.73822 100.195 5.71174C100.193 5.70285 100.193 5.69353 100.195 5.68464L100.261 5.54912H95.9514L90.8236 17.2039H97.588L101.443 8.43377C101.518 8.26866 101.647 8.13896 101.807 8.0698C102.009 7.97525 102.229 7.93026 102.45 7.93815C102.588 7.93007 102.726 7.95522 102.854 8.01172C102.887 8.02782 102.914 8.0533 102.934 8.08529C102.95 8.11183 102.957 8.14296 102.956 8.17434C102.954 8.23769 102.939 8.29983 102.912 8.35633L99.0099 17.2039H105.771L107.491 13.2544L107.523 13.1576V13.0995L109.895 7.67872L109.913 7.64ZM51.267 9.03393L52.9071 5.28582H52.7689C52.412 5.27808 52.0551 5.2923 51.6997 5.32841C51.0888 5.37488 50.6087 5.41747 50.1359 5.50266C49.7465 5.60937 49.3629 5.73863 48.9867 5.88986L48.874 5.52976H42.3933L41.2623 8.13175C41.228 8.2437 41.1879 8.35357 41.1423 8.46087L40.6295 9.57601L39.9022 11.2177L37.9783 15.6473C37.9783 15.6822 37.9347 15.7209 37.9093 15.7674L37.2874 17.1923H44.1317L47.0665 10.4937C47.2053 10.2238 47.3953 9.98775 47.6244 9.80042C47.8536 9.61309 48.1169 9.47864 48.3976 9.40564C49.3107 9.11864 50.2608 8.98794 51.2124 9.01844L51.267 9.03393Z" fill="white"/>
<path d="M130.763 15.6587L125.105 16.2627C122.253 16.5725 119.362 16.89 118.293 17.0371L130.443 17.6024C130.419 17.4385 130.405 17.2728 130.403 17.1068C130.409 16.5998 130.533 16.1022 130.763 15.6587Z" fill="white"/>
<path d="M134.772 9.57187C134.751 9.44227 134.761 9.30901 134.801 9.18467C134.956 8.75152 135.174 8.34659 135.445 7.98435V7.96112C135.446 7.94954 135.446 7.93785 135.445 7.92627C134.649 7.99597 132.07 8.21667 129.463 8.44899C126.953 8.6697 124.404 8.90202 123.426 9.01431L134.681 9.75386L134.743 9.63383V9.57187H134.772Z" fill="white"/>
<path d="M137.048 1.11102C137.125 1.01914 137.209 0.933704 137.298 0.855469C136.058 0.921293 129.243 1.30075 129.098 1.35883L136.626 1.81573C136.626 1.77701 136.662 1.73441 136.68 1.69957C136.776 1.48592 136.9 1.28777 137.048 1.11102Z" fill="white"/>
<path d="M153.45 7.97254C153.046 7.80982 152.622 7.70689 152.192 7.66665C152.068 7.66665 151.464 7.61245 151.464 7.60857C151.162 7.60857 150.766 7.60857 150.701 7.60857C150.125 7.61077 149.551 7.66257 148.984 7.76345C148.715 7.81253 148.45 7.87716 148.188 7.95706C147.911 8.04611 147.798 8.05386 147.58 8.11968C147.255 8.23929 146.943 8.3964 146.649 8.58819L146.351 8.77018C146.195 8.85149 146.042 8.89408 145.947 8.93667C145.76 8.96526 145.585 9.05292 145.445 9.18835L145.405 9.2232L145.064 9.55232L145.562 8.94829C145.391 8.97167 145.229 9.0395 145.089 9.14576C144.875 9.31613 144.511 9.653 144.511 9.653C144.539 9.58103 144.572 9.51118 144.609 9.44391C144.637 9.39626 144.669 9.35095 144.704 9.30839C144.802 9.19223 145.067 8.95991 145.067 8.95991C144.946 8.96641 144.824 8.97933 144.704 8.99863C144.6 9.00551 144.497 9.02632 144.398 9.06058L144.231 9.0296C144.096 9.02107 143.968 8.96522 143.867 8.87085C143.799 8.77736 143.737 8.67904 143.682 8.57658C143.649 8.52237 143.594 8.49139 143.58 8.43331C143.579 8.42687 143.579 8.4204 143.58 8.41395C143.595 8.28274 143.62 8.15316 143.656 8.02675C143.655 8.00999 143.655 7.99317 143.656 7.97642C143.623 7.98417 143.588 7.98417 143.554 7.97642C143.496 7.95333 143.441 7.92207 143.391 7.88349V7.85638C143.427 7.79443 143.511 7.67053 143.58 7.67053H143.605C143.624 7.6787 143.645 7.6787 143.663 7.67053C143.71 7.66231 143.756 7.64665 143.798 7.62406C143.798 7.62406 143.936 7.4111 143.94 7.39949C143.944 7.38787 143.94 7.38013 143.94 7.38013L143.667 7.32592C143.667 7.32592 143.514 7.17491 143.529 7.12457C143.538 7.12132 143.549 7.12132 143.558 7.12457H143.627C143.715 7.15115 143.805 7.16419 143.896 7.16329C143.965 7.16438 144.033 7.15658 144.1 7.14006L144.198 7.05488C144.198 7.02777 144.198 6.99293 144.14 6.94646C144.043 6.85881 143.959 6.75714 143.889 6.64444L143.911 6.6638C144.06 6.74866 144.221 6.80749 144.387 6.83804L144.634 6.77222L144.707 6.72576L144.773 6.68704C144.773 6.65993 144.773 6.6367 144.729 6.61734C144.672 6.59312 144.619 6.55911 144.573 6.51667C144.492 6.446 144.416 6.36829 144.347 6.28435C144.393 6.31823 144.44 6.34926 144.489 6.37727C144.624 6.44338 144.767 6.489 144.915 6.5128L144.987 6.45472C145.045 6.41035 145.11 6.37995 145.18 6.36566H145.318L145.449 6.3463H145.642L145.784 6.29983L146.511 6.17206C146.751 6.12559 146.987 6.07913 147.195 6.02879C147.361 5.99429 147.524 5.94374 147.682 5.87779C148.024 5.78313 148.356 5.65346 148.675 5.49058C149.073 5.27455 149.46 5.03675 149.835 4.77813C150.135 4.60285 150.425 4.40892 150.704 4.19733C150.861 4.07052 151.012 3.9348 151.155 3.79077C151.294 3.66541 151.416 3.52087 151.519 3.36098C151.702 3.04427 151.799 2.67968 151.799 2.30779C151.799 2.21486 151.799 2.12581 151.799 2.04449C151.764 1.86528 151.709 1.69113 151.635 1.52565C151.535 1.27649 151.371 1.062 151.162 0.906123C150.958 0.761721 150.723 0.672671 150.479 0.646699C150.339 0.627025 150.198 0.616679 150.057 0.615723C149.779 0.636516 149.503 0.687108 149.235 0.766731C148.919 0.871574 148.61 1.00099 148.311 1.15393C147.86 1.39054 147.436 1.68017 147.046 2.01739C146.478 2.45058 145.962 2.955 145.507 3.51973C145.087 3.9958 144.712 4.51455 144.387 5.06854L144.347 5.13823L144.22 5.26214C144.137 5.30235 144.067 5.36851 144.02 5.45186V5.47122C143.912 5.53305 143.815 5.61426 143.733 5.71129C143.733 5.71129 143.674 5.77711 143.649 5.80809C143.511 5.89647 143.381 5.99753 143.26 6.11011C143.133 6.16424 143.011 6.23169 142.896 6.31145C142.874 6.31145 142.823 6.33468 142.787 6.35017C142.697 6.39701 142.605 6.43837 142.511 6.47407C142.325 6.53216 142.129 6.55926 141.907 6.6367C141.685 6.71414 141.278 6.93097 141.18 6.94259C141.081 6.9542 140.943 6.94259 140.874 6.96195H140.681C140.529 6.99289 140.378 7.03427 140.23 7.08585L140.081 7.11296C140.037 7.11619 139.992 7.11619 139.947 7.11296C139.859 7.08198 139.779 7.03164 139.699 7.00454C139.565 6.95808 139.478 6.91161 139.445 6.80707C139.456 6.76262 139.456 6.71599 139.445 6.67155C139.419 6.62508 139.405 6.62121 139.405 6.62121C139.431 6.58514 139.45 6.54451 139.463 6.50118C139.461 6.45391 139.454 6.40706 139.441 6.36179C139.28 6.54076 139.102 6.70165 138.91 6.84192C138.796 6.93192 138.662 6.99044 138.521 7.01229C138.458 7.01901 138.395 7.01901 138.332 7.01229L138.387 7.17104C138.28 7.20281 138.17 7.21717 138.059 7.21363C137.981 7.2154 137.903 7.20629 137.827 7.18652C137.725 7.15168 137.747 7.10521 137.747 7.10521L138.234 6.98518L138.303 6.85353L138.183 6.74124L137.728 6.63283L138.092 6.47795L137.296 6.17206C137.304 6.32199 137.329 6.47025 137.372 6.61347L137.332 6.6638C137.3 6.70329 137.269 6.74465 137.241 6.78771C137.187 6.88522 137.138 6.98607 137.096 7.08973C137.096 7.08973 137.016 7.21363 137.008 7.23299C136.961 7.32979 136.917 7.40336 136.874 7.4808C136.874 7.4808 136.754 7.66665 136.75 7.66665C136.62 7.85227 136.498 8.04483 136.386 8.24358C136.275 8.4253 136.183 8.6202 136.114 8.82439C136.071 8.94005 136.059 9.06575 136.077 9.18835C136.134 9.38325 136.124 9.59323 136.048 9.78077L135.975 9.83111L135.903 9.88144L135.754 9.98986L135.681 10.0479L135.535 10.168C135.484 10.2067 135.441 10.2493 135.394 10.2919L135.328 10.3538L135.204 10.4894L135.146 10.559L135.044 10.6946C135.018 10.7301 134.993 10.7677 134.972 10.8069C134.929 10.8763 134.894 10.9503 134.866 11.0276C134.804 11.1787 134.765 11.3395 134.75 11.5038C134.75 11.558 134.779 11.6006 134.779 11.6626C134.783 11.86 134.767 12.0572 134.732 12.2511C134.732 12.3841 134.708 12.5158 134.659 12.6383C134.651 12.6483 134.643 12.6574 134.633 12.6654C134.618 12.6798 134.603 12.6954 134.59 12.7119C134.755 12.6592 134.927 12.6318 135.099 12.6306C135.189 12.6296 135.279 12.6374 135.368 12.6538C135.612 12.7041 135.775 12.7932 135.801 12.9945H135.75C135.75 13.0449 135.79 13.1649 135.845 13.1843C135.866 13.1378 136.008 13.0642 136.026 13.0449C136.043 13.0314 136.057 13.0158 136.07 12.9984L136.099 12.9403C136.141 12.8994 136.189 12.8666 136.241 12.8435C136.403 12.6975 136.584 12.5775 136.779 12.4873H136.856C136.924 12.4146 137.012 12.3648 137.106 12.344H137.128C137.151 12.3413 137.174 12.3413 137.197 12.344C137.245 12.3449 137.291 12.3626 137.328 12.3944C137.35 12.4641 137.459 12.4215 137.517 12.4447C137.576 12.4679 137.605 12.5376 137.656 12.5841C137.794 12.7119 137.965 12.8048 138.092 12.9326L138.154 12.9945C138.228 13.093 138.312 13.1826 138.405 13.2617C138.457 13.3029 138.502 13.3525 138.539 13.4088C138.586 13.4507 138.639 13.4834 138.696 13.5056C138.717 13.5271 138.736 13.5504 138.754 13.5753V13.6721C138.728 13.738 138.703 13.8077 138.754 13.8503C138.751 13.8915 138.743 13.932 138.728 13.9703C138.719 14.0176 138.713 14.0654 138.71 14.1136C138.71 14.1407 138.71 14.1678 138.71 14.1949C138.71 14.222 138.71 14.3033 138.71 14.3575C138.71 14.4117 138.71 14.4001 138.71 14.4194C138.706 14.4826 138.706 14.546 138.71 14.6092C138.719 14.7172 138.74 14.8237 138.772 14.9267C138.946 15.3785 139.192 15.795 139.499 16.158C139.801 16.5174 140.147 16.8314 140.529 17.0911C140.897 17.3995 141.31 17.6427 141.751 17.8113C142.075 17.9156 142.412 17.9691 142.751 17.9701C143.049 17.9698 143.346 17.9281 143.634 17.8462C143.814 17.7969 143.987 17.7213 144.147 17.6216C144.256 17.5635 144.376 17.5093 144.467 17.4551C144.729 17.3009 144.958 17.0929 145.144 16.8433L145.238 16.7001L145.278 16.6226L145.311 16.5452L145.34 16.4677C145.34 16.4406 145.358 16.4135 145.365 16.3864C145.386 16.3476 145.4 16.3059 145.409 16.2625C145.409 16.2354 145.409 16.2083 145.409 16.1773C145.409 16.1464 145.409 16.1154 145.409 16.0883C145.431 15.4688 145.02 15.159 144.656 14.9267C144.293 14.6944 143.929 14.5124 143.565 14.3149C143.54 14.3149 143.26 14.1523 142.812 13.9277C142.556 13.7812 142.291 13.6519 142.02 13.5405H141.991H141.965H141.943H141.921H141.903H141.874H141.772H141.754H141.725C141.595 13.4698 141.455 13.4215 141.311 13.3972C141.243 13.3801 141.178 13.3527 141.118 13.3159C141.085 13.2733 141.074 13.2307 141.038 13.1843C140.87 13.1843 140.561 13.2656 140.369 13.2811H140.165H140.139H140.121H140.096H140.07H140.052H140.027H139.994C140.159 13.1205 140.353 12.9979 140.565 12.921C140.627 12.921 140.645 12.8977 140.634 12.8939H140.489C140.327 12.917 140.171 12.9735 140.03 13.0604C139.985 13.093 139.936 13.1191 139.885 13.1378C139.919 13.0906 139.955 13.0454 139.994 13.0023C140.094 12.9156 140.203 12.8403 140.318 12.7777C140.476 12.7563 140.621 12.6702 140.721 12.5376V12.5183C140.721 12.5183 140.612 12.5183 140.532 12.5183H140.303C140.22 12.528 140.138 12.5488 140.059 12.5802L139.787 12.6964L139.318 12.8784L139.259 12.8977C139.436 12.7287 139.636 12.5902 139.852 12.4873C140.022 12.3797 140.206 12.3001 140.398 12.2511C140.431 12.2414 140.466 12.2414 140.5 12.2511V12.1737C140.481 12.141 140.471 12.1035 140.471 12.0653C140.471 12.027 140.481 11.9895 140.5 11.9568C140.544 11.8871 140.6 11.8256 140.663 11.7749C140.866 11.6462 141.082 11.5423 141.307 11.4651C141.467 11.3915 141.631 11.3218 141.787 11.2599C141.943 11.1979 142.125 11.1282 142.278 11.0585C142.431 10.9888 142.583 10.892 142.729 10.834C142.884 10.7298 143.059 10.6661 143.242 10.6481C143.46 10.6481 143.925 10.6094 144.234 10.5707L144.558 10.5281C144.719 10.4923 144.882 10.4677 145.045 10.4545C145.155 10.4545 145.224 10.4855 145.358 10.4932C145.481 10.4892 145.604 10.5048 145.722 10.5397C145.875 10.5889 146.025 10.651 146.169 10.7255C146.36 10.8631 146.568 10.9713 146.787 11.0469C147.677 11.2675 148.592 11.3549 149.504 11.3063H149.548C149.938 11.2969 150.328 11.2646 150.715 11.2095C151.228 11.1464 151.736 11.0376 152.232 10.8843C152.85 10.7393 153.404 10.3748 153.803 9.85047C153.958 9.62137 154.059 9.35569 154.097 9.07607C154.142 8.83893 154.1 8.59264 153.979 8.38753C153.859 8.18243 153.67 8.03398 153.45 7.97254Z" fill="white"/>
<path d="M137.221 4.86325C137.256 5.07299 137.337 5.27089 137.458 5.44018C137.586 5.62844 137.763 5.77252 137.967 5.85448C138.232 5.96367 138.516 6.00864 138.8 5.98613H138.913C138.913 5.98613 138.771 5.92418 138.549 5.84674C138.436 5.81043 138.326 5.76244 138.222 5.70347H138.902C138.686 5.67432 138.472 5.62376 138.265 5.55246L138.134 5.48277L138.676 5.52536C138.65 5.44554 138.628 5.36408 138.611 5.28142C138.706 5.30383 138.804 5.31551 138.902 5.31627C139.248 5.30717 139.587 5.20652 139.888 5.02335C140.189 4.84019 140.442 4.58026 140.625 4.26696C140.985 3.85339 141.289 3.38808 141.527 2.88465C141.583 2.77081 141.632 2.65309 141.673 2.53229C141.805 2.14541 141.881 1.73936 141.898 1.3281C141.903 1.05749 141.825 0.792551 141.676 0.573058C141.549 0.337267 141.344 0.159537 141.102 0.0735682C140.956 0.0319753 140.806 0.00730962 140.655 0C140.42 0.00456676 140.186 0.0330921 139.956 0.0851842C139.375 0.23345 138.847 0.555954 138.433 1.01447C138.351 1.10138 138.279 1.19746 138.218 1.301C138.157 1.39271 138.101 1.48841 138.051 1.58752C137.865 1.96391 137.701 2.35181 137.56 2.74913C137.498 2.92337 137.396 3.27185 137.396 3.27572C137.396 3.27959 137.327 3.54289 137.32 3.56225C137.222 3.88311 137.181 4.22059 137.2 4.55736C137.199 4.6598 137.206 4.76216 137.221 4.86325Z" fill="white"/>
<path d="M135.133 13.8187C135.165 13.7335 135.264 13.6329 135.3 13.5438C135.26 13.5438 135.271 13.4277 135.3 13.3889C135.125 13.2662 134.926 13.188 134.718 13.1605C134.551 13.1322 134.381 13.1454 134.22 13.1992L134.074 13.2728C134.208 13.2442 134.346 13.2364 134.482 13.2495H134.5C134.918 13.3076 134.998 13.5787 134.998 13.5787C134.821 13.5125 134.64 13.4607 134.456 13.4238H134.413C134.231 13.4182 134.049 13.4338 133.871 13.4702L133.471 13.598C133.737 13.5631 134.006 13.554 134.274 13.5709C134.31 13.5768 134.345 13.5858 134.38 13.598C134.529 13.6622 134.663 13.763 134.769 13.8923C134.621 13.7884 134.451 13.7247 134.274 13.7064C134.227 13.7064 134.176 13.7064 134.118 13.7064C133.83 13.6983 133.543 13.7455 133.271 13.8458C133.045 13.9143 132.834 14.0287 132.649 14.1827L132.601 14.2292C132.39 14.4334 132.21 14.6726 132.07 14.9377C131.813 15.3802 131.665 15.8852 131.641 16.4052C131.636 16.6405 131.663 16.8753 131.721 17.1022C131.764 17.3616 131.894 17.5953 132.088 17.7588C132.282 17.9223 132.525 18.0042 132.772 17.9889C133.113 18.0308 133.457 17.9512 133.75 17.7628C134.044 17.5743 134.27 17.2875 134.394 16.9473C134.518 16.6453 134.605 16.3781 134.714 16.0916C134.714 16.0916 134.816 15.8477 134.863 15.7044C134.911 15.5611 134.958 15.4798 134.991 15.383C135.1 15.1228 135.174 14.8479 135.213 14.566C135.218 14.5197 135.218 14.4729 135.213 14.4266C135.196 14.316 135.155 14.2112 135.093 14.1207C135.093 14.0186 135.106 13.9169 135.133 13.8187Z" fill="white"/>
<path d="M149.829 4.03868L149.793 3.99996L149.978 3.82959L150.015 3.87218C150.015 3.87218 150.015 3.89154 150.051 3.87218C149.989 3.93801 149.913 3.98447 149.829 4.03868Z" fill="black"/>
<path d="M150.197 3.79101H150.095L150.059 3.74454L150.193 3.62451C150.219 3.65611 150.247 3.68586 150.277 3.71357L150.197 3.79101Z" fill="black"/>
<path d="M150.483 3.5624C150.45 3.51981 150.424 3.47721 150.406 3.45011L150.548 3.33008C150.558 3.3452 150.569 3.35945 150.581 3.37267H150.621H150.675C150.614 3.44237 150.552 3.50432 150.483 3.5624Z" fill="black"/>
<path d="M150.747 3.30652H150.645L150.605 3.2678L150.704 3.18262L150.776 3.2678L150.747 3.30652Z" fill="black"/>
<path d="M150.986 3.03967C150.968 3.06919 150.946 3.09647 150.923 3.12098L150.863 3.04742L150.989 2.94287L151.011 2.97385L150.986 3.03967Z" fill="black"/>
<path d="M151.145 2.02487C151.05 2.01909 150.954 2.03088 150.862 2.05972C150.825 2.05972 150.785 2.08682 150.789 2.1178C150.793 2.14877 150.862 2.1178 150.898 2.14103C150.997 2.14079 151.094 2.16603 151.182 2.2146C151.188 2.33512 151.18 2.45594 151.16 2.57469C151.065 2.46367 150.939 2.38746 150.8 2.35688C150.662 2.3263 150.518 2.3429 150.389 2.40433C150.345 2.40433 150.309 2.43917 150.313 2.47402C150.316 2.50887 150.393 2.47402 150.429 2.47402C150.531 2.45769 150.636 2.47579 150.727 2.52578C150.819 2.57578 150.894 2.65516 150.942 2.75281C150.836 2.83412 150.724 2.92705 150.684 2.9619C150.569 2.84715 150.425 2.77232 150.27 2.74741C150.114 2.72249 149.955 2.7487 149.814 2.8225C149.767 2.8225 149.724 2.8651 149.731 2.89994C149.738 2.93479 149.822 2.89994 149.865 2.89994C149.974 2.87915 150.087 2.8926 150.189 2.93867C150.291 2.98473 150.378 3.06142 150.44 3.15937C150.327 3.26004 150.196 3.36846 150.149 3.40718C150.011 3.2921 149.845 3.22388 149.67 3.21145C149.495 3.19901 149.321 3.24294 149.171 3.33748C149.12 3.33748 149.076 3.38782 149.083 3.42267C149.091 3.45751 149.185 3.42267 149.229 3.42267C149.367 3.39169 149.745 3.36071 149.887 3.65499L149.523 3.98411C149.368 3.87693 149.187 3.81991 149.002 3.81991C148.816 3.81991 148.635 3.87693 148.48 3.98411C148.425 4.00734 148.382 4.04219 148.392 4.07703C148.403 4.11188 148.498 4.07703 148.545 4.0538C148.691 4.01121 149.087 3.95313 149.254 4.23966C149.153 4.32872 149.018 4.43713 148.891 4.55716L148.865 4.5378C148.665 4.44235 148.443 4.4074 148.225 4.43676C148.007 4.46612 147.801 4.55866 147.629 4.7043C147.606 4.71621 147.585 4.73189 147.567 4.75076L147.363 4.71979C148.534 3.65577 149.774 2.68022 151.073 1.80029C151.103 1.87285 151.127 1.94797 151.145 2.02487Z" fill="black"/>
<path d="M150.502 1.52197C150.512 1.52983 150.524 1.53407 150.536 1.53407C150.549 1.53407 150.561 1.52983 150.571 1.52197C150.581 1.517 150.589 1.50931 150.594 1.49975C150.6 1.49019 150.603 1.47912 150.604 1.46776C150.605 1.45233 150.605 1.43672 150.604 1.42129C150.604 1.39806 150.604 1.37483 150.578 1.35547H150.607C150.68 1.38431 150.75 1.42199 150.815 1.46776L150.866 1.51035C150.863 1.52315 150.863 1.53627 150.866 1.54907C150.861 1.5786 150.861 1.6086 150.866 1.63813C150.866 1.63813 150.866 1.63813 150.866 1.65749L150.593 1.83947C150.575 1.8046 150.55 1.77423 150.52 1.75041C150.512 1.74566 150.504 1.74315 150.495 1.74315C150.486 1.74315 150.477 1.74566 150.469 1.75041C150.46 1.75535 150.453 1.76252 150.447 1.77128C150.441 1.78005 150.438 1.79016 150.436 1.80075C150.43 1.8457 150.43 1.89132 150.436 1.93627L150.102 2.17246C150.079 2.1391 150.052 2.10914 150.022 2.08341C150.014 2.07865 150.005 2.07614 149.996 2.07614C149.987 2.07614 149.979 2.07865 149.971 2.08341C149.962 2.08723 149.955 2.09368 149.95 2.10195C149.945 2.11022 149.942 2.11993 149.942 2.12987C149.94 2.17967 149.946 2.22949 149.96 2.27701L149.531 2.59064C149.505 2.59064 149.469 2.53643 149.436 2.5132C149.429 2.50942 149.421 2.50746 149.413 2.50746C149.405 2.50746 149.396 2.50942 149.389 2.5132C149.369 2.52499 149.353 2.54427 149.345 2.56741C149.343 2.58542 149.343 2.60361 149.345 2.62162C149.357 2.65284 149.372 2.68269 149.389 2.71067L148.88 3.09787C148.833 3.08753 148.788 3.06639 148.749 3.03592C148.749 3.03592 148.694 3.00494 148.676 3.01269C148.654 3.02699 148.638 3.04885 148.629 3.07464C148.646 3.08421 148.665 3.09199 148.684 3.09787C148.7 3.13192 148.721 3.16324 148.745 3.1908C148.513 3.37666 148.276 3.578 148.04 3.76773C147.979 3.73689 147.916 3.71225 147.851 3.69416C147.839 3.6907 147.826 3.6907 147.814 3.69416C147.805 3.6989 147.796 3.70587 147.789 3.71457C147.782 3.72327 147.777 3.73349 147.774 3.7445C147.773 3.75993 147.773 3.77554 147.774 3.79096C147.773 3.79995 147.773 3.80908 147.774 3.81807C147.793 3.8515 147.814 3.88381 147.836 3.91487C147.589 4.12396 147.32 4.37176 147.058 4.61183C146.877 4.56329 146.71 4.46596 146.574 4.32917C146.752 4.17429 146.938 4.02328 147.109 3.88002C147.114 3.91193 147.122 3.94311 147.134 3.97295V3.99618C147.147 4.00771 147.162 4.0157 147.178 4.01941H147.203C147.212 4.01636 147.219 4.01127 147.226 4.00456C147.232 3.99785 147.237 3.98968 147.24 3.98069C147.244 3.96418 147.244 3.94686 147.24 3.93035C147.24 3.86453 147.24 3.80258 147.258 3.74063C147.512 3.53154 147.771 3.32245 148.025 3.12498C148.029 3.15435 148.036 3.18304 148.047 3.21016L148.065 3.23339C148.076 3.23618 148.087 3.23618 148.098 3.23339C148.109 3.23634 148.12 3.23634 148.131 3.23339C148.141 3.22898 148.15 3.22154 148.156 3.21194C148.163 3.20233 148.167 3.19097 148.167 3.17919C148.181 3.1103 148.189 3.04039 148.193 2.9701L148.749 2.55192C148.755 2.58448 148.766 2.61581 148.782 2.64485C148.79 2.66356 148.804 2.67862 148.822 2.68744C148.828 2.69117 148.836 2.69312 148.844 2.69312C148.851 2.69312 148.859 2.69117 148.865 2.68744C148.905 2.66421 148.905 2.58677 148.905 2.58677V2.42802L149.411 2.13374C149.423 2.16697 149.442 2.19724 149.465 2.2228H149.491C149.505 2.22657 149.52 2.22657 149.535 2.2228C149.546 2.21745 149.555 2.20871 149.562 2.19769C149.568 2.18666 149.571 2.17384 149.571 2.16085C149.574 2.11317 149.574 2.06526 149.571 2.01758L149.975 1.74267C149.995 1.78498 150.029 1.81895 150.069 1.83947C150.083 1.84324 150.098 1.84324 150.113 1.83947C150.124 1.83412 150.133 1.82538 150.14 1.81436C150.146 1.80333 150.149 1.79051 150.149 1.77752C150.153 1.75704 150.153 1.73604 150.149 1.71557L150.127 1.65361C150.233 1.58005 150.345 1.51035 150.451 1.44065C150.464 1.47028 150.481 1.49767 150.502 1.52197Z" fill="black"/>
<path d="M146.399 3.92622C146.67 3.63661 146.861 3.27377 146.952 2.87691C147.083 2.75301 147.221 2.64072 147.356 2.53617C147.428 2.47035 147.53 2.38904 147.647 2.29998C147.613 2.5292 147.543 2.7506 147.439 2.95435C147.403 3.02405 147.276 3.16344 147.323 3.18667C147.37 3.2099 147.432 3.13246 147.486 3.05502C147.723 2.7825 147.885 2.44649 147.956 2.08315C148.101 1.98095 148.252 1.88662 148.407 1.80049C148.387 1.98821 148.339 2.17133 148.265 2.34257C148.236 2.4084 148.123 2.54392 148.17 2.56328C148.217 2.58264 148.268 2.5052 148.319 2.43163C148.471 2.20914 148.579 1.95624 148.636 1.6882C148.774 1.62238 148.916 1.55655 149.061 1.4946C149.045 1.61069 149.018 1.72481 148.981 1.83534C148.956 1.90116 148.861 2.03668 148.908 2.0483C148.956 2.05992 148.999 1.99022 149.043 1.91665C149.132 1.76332 149.202 1.59794 149.25 1.42491C149.367 1.37675 149.489 1.34423 149.614 1.32811L149.589 1.42103C149.567 1.48299 149.472 1.61851 149.516 1.63012C149.559 1.64174 149.61 1.57204 149.65 1.49847C149.69 1.43132 149.725 1.36148 149.756 1.28939H149.803C149.882 1.27326 149.963 1.26548 150.043 1.26615C150.039 1.27165 150.037 1.27848 150.037 1.28551C150.037 1.29255 150.039 1.29938 150.043 1.30487C150.056 1.30503 150.068 1.30195 150.08 1.29589C150.091 1.28982 150.101 1.28096 150.109 1.27003H150.283C148.93 2.11415 147.637 3.06275 146.414 4.10821C146.39 4.06499 146.371 4.01963 146.355 3.97269L146.399 3.92622Z" fill="black"/>
<path d="M144.605 15.4883C144.663 15.5347 144.714 15.5773 144.758 15.6199L144.547 15.5502L144.605 15.4883Z" fill="black"/>
<path d="M144.415 15.3451L144.473 15.3877L144.389 15.4845L144.215 15.4264L144.273 15.3606L144.393 15.3335L144.415 15.3451Z" fill="black"/>
<path d="M144.139 15.1782L144.313 15.2789H144.277H144.255C144.239 15.2856 144.224 15.2961 144.211 15.3099L144.153 15.3718L144.008 15.3137C144.048 15.2789 144.095 15.2286 144.139 15.1782Z" fill="black"/>
<path d="M143.994 15.1009L143.848 15.2713L143.699 15.2055C143.754 15.1435 143.761 15.1358 143.797 15.1203L143.957 15.0854L143.994 15.1009Z" fill="black"/>
<path d="M143.644 14.9072C143.72 14.9459 143.797 14.9847 143.87 15.0273H143.793H143.764L143.724 15.0582L143.648 15.1395L143.48 15.0505C143.533 15.0001 143.588 14.9522 143.644 14.9072Z" fill="black"/>
<path d="M143.488 14.8219C143.433 14.8839 143.36 14.9536 143.324 14.9884L143.164 14.8877C143.188 14.8589 143.217 14.8341 143.248 14.8142L143.408 14.7832L143.488 14.8219Z" fill="black"/>
<path d="M143.073 14.6128L143.305 14.729H143.269H143.236C143.218 14.7373 143.2 14.7491 143.185 14.7638C143.162 14.7892 143.136 14.8125 143.109 14.8335L142.945 14.7173L143.073 14.6128Z" fill="black"/>
<path d="M142.829 14.4893L142.923 14.5357L142.792 14.648C142.752 14.6015 142.716 14.5822 142.68 14.5357L142.829 14.4893Z" fill="black"/>
<path d="M142.501 14.3267C142.544 14.35 142.587 14.3758 142.628 14.4041H142.653H142.675H142.708H142.661C142.644 14.4121 142.628 14.4225 142.613 14.4351C142.559 14.3839 142.506 14.3297 142.457 14.2725L142.501 14.3267Z" fill="black"/>
<path d="M141.497 14.5586C141.526 14.5511 141.554 14.5408 141.581 14.5276L141.944 14.4115C141.962 14.4115 141.988 14.4115 142.017 14.4115L142.104 14.3921C142.128 14.4376 142.155 14.4816 142.184 14.5237L142.235 14.5818C142.286 14.636 142.337 14.6902 142.388 14.7367L142.439 14.7793C142.192 14.9505 141.904 15.0432 141.61 15.0465C141.562 15.0465 141.504 15.0116 141.457 15.0465C141.41 15.0813 141.439 15.1045 141.482 15.1123C141.526 15.12 141.893 15.2904 142.595 14.9032L142.701 14.9806L142.77 15.031L142.897 15.1162L142.937 15.1433C142.693 15.3122 142.415 15.4183 142.126 15.453C142.071 15.453 141.999 15.453 141.955 15.484C141.911 15.515 141.955 15.5382 142.002 15.5421C142.395 15.5911 142.792 15.488 143.119 15.2517L143.239 15.3136L143.326 15.3601L143.453 15.422C143.234 15.583 142.987 15.6974 142.726 15.7589C142.668 15.7589 142.577 15.7589 142.544 15.817C142.512 15.8751 142.544 15.8596 142.617 15.8518C142.986 15.845 143.345 15.7268 143.653 15.5111L143.781 15.5653L143.879 15.604L143.977 15.6389C143.78 15.7896 143.562 15.9047 143.33 15.9796C143.272 16.0028 143.166 16.0067 143.144 16.0532C143.123 16.0996 143.173 16.0919 143.235 16.0803C143.574 16.0305 143.898 15.8979 144.181 15.6931C144.217 15.6931 144.254 15.7202 144.29 15.7279L144.399 15.7628L144.501 15.7938H144.563C144.374 15.948 144.162 16.0684 143.937 16.15C143.883 16.1771 143.77 16.1887 143.748 16.2352C143.726 16.2816 143.792 16.27 143.853 16.2545C144.183 16.1992 144.497 16.067 144.774 15.8673L144.857 15.8906H144.93C144.934 15.9344 144.934 15.9784 144.93 16.0222C144.932 16.0557 144.932 16.0893 144.93 16.1229C144.831 16.2003 144.727 16.2689 144.617 16.3281C144.563 16.3629 144.443 16.3939 144.439 16.4365C144.435 16.4791 144.501 16.4365 144.566 16.4365C144.632 16.4365 144.73 16.3784 144.875 16.3087C144.826 16.4157 144.762 16.5147 144.686 16.603C143.123 16.3204 141.646 15.6311 141.086 14.8103C141.211 14.7064 141.35 14.6217 141.497 14.5586Z" fill="black"/>
<path d="M140.732 15.2441H140.768C140.819 15.2209 140.87 15.2054 140.921 15.186C140.931 15.202 140.944 15.2164 140.958 15.2286C141.085 15.3731 141.226 15.5029 141.379 15.6158C141.349 15.6329 141.32 15.6523 141.292 15.6739L141.263 15.7049C141.261 15.7138 141.261 15.7231 141.263 15.732C141.263 15.7513 141.263 15.7707 141.31 15.7552C141.358 15.7397 141.452 15.7088 141.507 15.6933C141.656 15.7949 141.81 15.8879 141.969 15.9721C141.937 15.9917 141.906 16.0137 141.878 16.0379C141.867 16.0472 141.857 16.0576 141.849 16.0689C141.849 16.0689 141.849 16.0882 141.849 16.0998C141.868 16.1054 141.888 16.1054 141.907 16.0998H141.943L141.998 16.0766L142.096 16.0417C142.244 16.1166 142.4 16.1863 142.565 16.2508C142.534 16.2765 142.505 16.3065 142.481 16.3399C142.481 16.3399 142.481 16.3786 142.55 16.3631C142.602 16.3436 142.652 16.3189 142.7 16.2896C142.849 16.3438 143.009 16.398 143.172 16.4483C143.145 16.4782 143.122 16.5121 143.103 16.549C143.103 16.549 143.103 16.549 143.103 16.5722C143.103 16.5954 143.132 16.6071 143.18 16.5722C143.226 16.5479 143.27 16.5181 143.311 16.4832L143.729 16.5954C143.709 16.626 143.692 16.6584 143.678 16.6922C143.676 16.6971 143.675 16.7022 143.676 16.7073C143.676 16.7125 143.678 16.7174 143.68 16.7219C143.683 16.7263 143.686 16.7301 143.69 16.733C143.694 16.7359 143.699 16.7379 143.703 16.7387C143.722 16.7465 143.743 16.7465 143.761 16.7387H143.78C143.821 16.7156 143.858 16.687 143.892 16.6535L144.405 16.7658C144.389 16.7923 144.377 16.821 144.369 16.851C144.367 16.8599 144.367 16.8692 144.369 16.8781L144.22 16.9788L144.063 17.064H144.031H143.947C143.978 17.0367 144.003 17.0023 144.02 16.9633C144.021 16.9597 144.022 16.9557 144.022 16.9517C144.022 16.9477 144.021 16.9437 144.02 16.9401C144.02 16.9207 143.972 16.9168 143.936 16.9401C143.877 16.9625 143.822 16.9952 143.772 17.0369L143.38 16.9439C143.41 16.9173 143.435 16.8843 143.452 16.8471C143.456 16.842 143.457 16.8359 143.457 16.8297C143.457 16.8235 143.456 16.8174 143.452 16.8123C143.435 16.8068 143.416 16.8068 143.398 16.8123C143.338 16.8349 143.28 16.8648 143.227 16.9013C143.074 16.8587 142.925 16.82 142.783 16.7736C142.814 16.7441 142.838 16.7086 142.856 16.669C142.856 16.669 142.856 16.6419 142.856 16.638C142.856 16.6342 142.827 16.638 142.805 16.638C142.747 16.6638 142.692 16.6936 142.638 16.7271C142.463 16.6729 142.296 16.6109 142.136 16.549C142.136 16.518 142.183 16.4832 142.198 16.4483C142.198 16.4173 142.172 16.4135 142.132 16.4212C142.081 16.4426 142.034 16.4741 141.994 16.5141C141.823 16.4459 141.656 16.3683 141.492 16.2818C141.492 16.2586 141.492 16.2276 141.518 16.2005C141.526 16.1827 141.535 16.1658 141.547 16.1502C141.547 16.1502 141.521 16.1192 141.488 16.1269H141.463C141.447 16.1334 141.433 16.1426 141.419 16.154L141.336 16.2353C141.147 16.1316 140.967 16.0111 140.798 15.8753C140.819 15.8288 140.859 15.7668 140.881 15.7204C140.882 15.7088 140.882 15.6971 140.881 15.6855C140.881 15.6623 140.881 15.6507 140.852 15.6507H140.819H140.801L140.761 15.6778L140.674 15.7552C140.62 15.6782 140.592 15.5841 140.594 15.4881C140.634 15.3951 140.681 15.3216 140.732 15.2441Z" fill="black"/>
<path d="M140.414 15.875C141.068 16.5371 142.232 16.9824 143.734 17.2651C143.662 17.3034 143.587 17.332 143.508 17.3502L143.388 17.3812C143.368 17.3413 143.341 17.3058 143.308 17.2767C143.297 17.262 143.281 17.2518 143.263 17.2476C143.245 17.2434 143.227 17.2454 143.21 17.2534C143.163 17.2805 143.21 17.3502 143.21 17.3773C143.212 17.3902 143.212 17.4032 143.21 17.4161C143.066 17.4418 142.92 17.456 142.774 17.4587C142.79 17.3909 142.79 17.3198 142.773 17.2521C142.757 17.1844 142.725 17.1222 142.679 17.0715C142.664 17.0553 142.645 17.0446 142.624 17.0411C142.603 17.0376 142.582 17.0415 142.563 17.0521C142.508 17.0831 142.563 17.1489 142.588 17.1799C142.61 17.2687 142.61 17.3621 142.588 17.4509C142.429 17.4397 142.271 17.4151 142.116 17.3773C142.146 17.2915 142.154 17.1983 142.138 17.1081C142.122 17.0178 142.083 16.9341 142.025 16.8662C142.006 16.8531 141.984 16.8461 141.961 16.8461C141.938 16.8461 141.916 16.8531 141.897 16.8662C141.836 16.905 141.919 16.9475 141.93 16.9824C141.972 17.0983 141.972 17.2266 141.93 17.3425H141.908C141.748 17.2914 141.59 17.2306 141.436 17.1605C141.48 17.0775 141.498 16.9818 141.487 16.8871C141.477 16.7924 141.438 16.7038 141.377 16.6339C141.362 16.6143 141.342 16.6009 141.318 16.596C141.295 16.591 141.271 16.5949 141.25 16.6068C141.188 16.6455 141.268 16.692 141.276 16.7268C141.294 16.8405 141.282 16.9575 141.239 17.0637C141.08 16.9807 140.928 16.8836 140.785 16.7733C140.842 16.6977 140.87 16.602 140.864 16.5052C140.858 16.4084 140.818 16.3175 140.752 16.2506C140.737 16.2326 140.716 16.2205 140.694 16.2163C140.671 16.2121 140.648 16.216 140.628 16.2274C140.566 16.2622 140.628 16.3087 140.65 16.3435C140.663 16.4446 140.651 16.5476 140.614 16.6417C140.515 16.5681 140.425 16.4945 140.341 16.4248C140.334 16.2384 140.359 16.0522 140.414 15.875Z" fill="black"/>
<path d="M152.682 10.1487C152.657 10.11 152.617 10.0867 152.581 10.1177C152.544 10.1487 152.562 10.1681 152.581 10.199C152.468 10.2494 152.348 10.2997 152.217 10.3462C152.185 10.2554 152.129 10.1762 152.057 10.1177C152.04 10.1019 152.018 10.0932 151.995 10.0932C151.972 10.0932 151.95 10.1019 151.933 10.1177C151.886 10.1564 151.973 10.199 151.988 10.2377C152.014 10.2946 152.03 10.3564 152.035 10.4197L151.653 10.5243C151.649 10.4359 151.623 10.3502 151.579 10.2755C151.534 10.2009 151.472 10.1398 151.399 10.0984C151.378 10.0834 151.353 10.0754 151.328 10.0754C151.302 10.0754 151.278 10.0834 151.257 10.0984C151.206 10.1448 151.311 10.1797 151.333 10.2145C151.401 10.3298 151.432 10.4659 151.42 10.6017C151.239 10.6404 151.057 10.6714 150.864 10.6985C150.876 10.5839 150.852 10.4682 150.796 10.3699C150.739 10.2716 150.653 10.1964 150.551 10.1564C150.527 10.1386 150.497 10.1291 150.468 10.1291C150.438 10.1291 150.409 10.1386 150.384 10.1564C150.329 10.2068 150.453 10.2416 150.482 10.2803C150.562 10.4168 150.598 10.5772 150.584 10.7372C150.286 10.776 150.02 10.7992 149.802 10.8108C149.796 10.675 149.746 10.5457 149.66 10.4448C149.575 10.3438 149.459 10.2775 149.333 10.2571C149.301 10.2429 149.266 10.2376 149.232 10.2417C149.198 10.2457 149.165 10.259 149.137 10.2803C149.078 10.3384 149.227 10.3539 149.267 10.3888C149.328 10.4409 149.378 10.5061 149.414 10.5801C149.45 10.6542 149.471 10.7354 149.475 10.8186H149.042C148.939 10.7842 148.842 10.7319 148.755 10.6637C148.596 10.5491 148.486 10.3723 148.449 10.1719C149.937 9.97061 151.441 9.9304 152.937 10.0519C152.852 10.0622 152.767 10.0945 152.682 10.1487Z" fill="black"/>
<path d="M153.416 9.52934C153.362 9.5806 153.311 9.63489 153.263 9.69197C153.147 9.69197 153.031 9.66487 152.9 9.65712C152.931 9.60619 152.956 9.55163 152.976 9.4945C152.976 9.47126 152.976 9.45578 152.976 9.44416C152.952 9.44497 152.929 9.45453 152.911 9.47126C152.856 9.52506 152.803 9.58193 152.754 9.64163L152.285 9.61453C152.299 9.55994 152.317 9.5068 152.34 9.45578C152.34 9.43642 152.34 9.42093 152.34 9.41706C152.327 9.41483 152.314 9.4154 152.301 9.41873C152.289 9.42206 152.277 9.42808 152.267 9.43642C152.247 9.45379 152.229 9.47324 152.212 9.4945C152.181 9.53267 152.153 9.57418 152.129 9.6184H151.543C151.533 9.56605 151.533 9.512 151.543 9.45965V9.43254C151.543 9.43254 151.543 9.3977 151.543 9.39382C151.529 9.39227 151.514 9.39387 151.5 9.39853C151.487 9.4032 151.474 9.41082 151.463 9.42093C151.451 9.42922 151.44 9.4397 151.43 9.4519L151.412 9.47901C151.384 9.5229 151.36 9.56958 151.339 9.6184C151.056 9.6184 150.769 9.6184 150.467 9.65325C150.474 9.58637 150.474 9.51878 150.467 9.4519C150.467 9.4519 150.467 9.43254 150.445 9.42867C150.433 9.42708 150.422 9.42797 150.41 9.43129C150.399 9.43462 150.389 9.44031 150.379 9.44803C150.362 9.45937 150.346 9.47376 150.332 9.49062C150.324 9.49836 150.318 9.50756 150.314 9.51773C150.287 9.56278 150.263 9.60932 150.241 9.65712C149.797 9.6881 149.332 9.73456 148.848 9.79264V9.69584C148.848 9.65712 148.848 9.6184 148.812 9.60291C148.788 9.60093 148.763 9.60774 148.743 9.62227C148.725 9.6356 148.709 9.65121 148.696 9.66874L148.677 9.69971C148.655 9.73998 148.636 9.78285 148.623 9.82749L148.488 9.84685C148.519 9.65501 148.58 9.47027 148.67 9.3009C149.107 9.23507 149.532 9.18086 149.943 9.14214C149.915 9.17507 149.89 9.21 149.867 9.24669C149.866 9.257 149.866 9.26735 149.867 9.27766C149.863 9.29421 149.863 9.31145 149.867 9.328C149.87 9.32972 149.874 9.33061 149.878 9.33061C149.881 9.33061 149.885 9.32972 149.888 9.328C149.907 9.33361 149.928 9.33361 149.947 9.328C149.968 9.31704 149.988 9.30267 150.005 9.28541L150.194 9.11891C150.532 9.09181 150.859 9.06857 151.179 9.05696L151.107 9.15376C151.099 9.16583 151.093 9.17883 151.089 9.19248C151.085 9.20509 151.085 9.21858 151.089 9.2312C151.091 9.23582 151.094 9.23991 151.098 9.24324C151.101 9.24657 151.106 9.24906 151.11 9.25056C151.137 9.25162 151.163 9.24193 151.183 9.22345C151.256 9.17312 151.339 9.09181 151.405 9.0376C151.63 9.0376 151.852 9.0376 152.07 9.0376C152.039 9.07439 152.01 9.11318 151.983 9.15376C151.982 9.16922 151.982 9.18476 151.983 9.20022C151.982 9.20918 151.982 9.21837 151.983 9.22733C151.982 9.23448 151.983 9.2419 151.986 9.24828C151.99 9.25465 151.995 9.25957 152.001 9.26217C152.016 9.26146 152.03 9.25766 152.043 9.25102C152.056 9.24437 152.068 9.235 152.078 9.22345H152.096C152.147 9.17312 152.205 9.12278 152.26 9.07632L152.783 9.09568C152.751 9.13793 152.724 9.18485 152.703 9.23507C152.702 9.24662 152.702 9.25837 152.703 9.26992C152.703 9.27695 152.705 9.28385 152.709 9.28948C152.713 9.29511 152.719 9.29914 152.725 9.3009C152.725 9.3009 152.776 9.3009 152.801 9.26605C152.855 9.2162 152.906 9.1632 152.954 9.10729L153.383 9.14601C153.347 9.20134 153.32 9.2629 153.303 9.328C153.303 9.328 153.303 9.3551 153.321 9.35898C153.336 9.3612 153.35 9.35952 153.363 9.35409C153.377 9.34867 153.389 9.33969 153.398 9.328C153.423 9.30411 153.446 9.27822 153.467 9.25056L153.532 9.1615L153.674 9.18086C153.608 9.31196 153.52 9.42984 153.416 9.52934Z" fill="black"/>
<path d="M148.809 8.98319C148.974 8.77522 149.148 8.5762 149.332 8.3869C149.416 8.32734 149.496 8.2627 149.572 8.1933C149.834 8.16232 150.092 8.14296 150.343 8.13135C150.142 8.29344 149.927 8.43354 149.7 8.54953C149.623 8.58825 149.456 8.62697 149.445 8.6773C149.434 8.72764 149.518 8.70053 149.605 8.6773C149.98 8.56268 150.332 8.37779 150.645 8.13135H150.951C151.143 8.13135 151.336 8.13135 151.529 8.13135C151.365 8.25046 151.192 8.35534 151.012 8.44498C150.943 8.47596 150.798 8.50693 150.787 8.5534C150.776 8.59986 150.852 8.5805 150.932 8.5534C151.227 8.46397 151.507 8.32545 151.762 8.14296C151.885 8.14296 152.013 8.16232 152.125 8.17781L152.311 8.20104C152.194 8.2785 152.073 8.34708 151.947 8.40626C151.882 8.43724 151.743 8.46434 151.736 8.5108C151.729 8.55727 151.798 8.53791 151.871 8.5108C152.089 8.44602 152.298 8.35098 152.493 8.22815C152.656 8.25525 152.798 8.2901 152.929 8.32495L152.798 8.40239C152.736 8.43337 152.602 8.46434 152.598 8.5108C152.594 8.55727 152.664 8.53404 152.733 8.5108C152.844 8.4692 152.953 8.42138 153.06 8.36754L153.231 8.43724L153.344 8.49532C153.296 8.51855 153.256 8.54178 153.253 8.56501C153.249 8.58825 153.322 8.58437 153.395 8.56501H153.42C153.466 8.59089 153.507 8.62711 153.539 8.67122C153.571 8.71532 153.594 8.76627 153.605 8.82057C152.006 8.67366 150.396 8.72824 148.809 8.98319Z" fill="black"/>
<path d="M140.891 0.541992C140.946 0.550394 141 0.566001 141.051 0.588456C141.141 0.621516 141.216 0.691054 141.258 0.782057C141.178 0.879716 141.103 0.981821 141.033 1.08795C140.982 1.17313 140.957 1.25057 141.033 1.24283C141.109 1.23508 141.182 1.0802 141.248 1.01051L141.338 0.913705C141.388 1.01221 141.419 1.12007 141.429 1.23121C141.209 1.42706 141.015 1.65368 140.851 1.90494C140.8 1.98625 140.771 2.06369 140.851 2.05595C140.931 2.0482 141 1.89332 141.066 1.8275C141.181 1.7006 141.302 1.58039 141.429 1.4674C141.413 1.63745 141.384 1.8058 141.342 1.97076C140.997 2.20963 140.697 2.51571 140.458 2.87294C140.407 2.95425 140.378 3.02782 140.44 3.02395C140.502 3.02008 140.593 2.86907 140.658 2.79937C140.845 2.60413 141.047 2.42663 141.262 2.26891L141.24 2.33086C141.205 2.43494 141.165 2.53703 141.12 2.63675C141.066 2.75291 140.997 2.88069 140.92 3.02395C140.745 3.15109 140.58 3.29495 140.429 3.45374C140.349 3.41115 140.262 3.36856 140.16 3.32597C140.594 2.46667 140.843 1.516 140.891 0.541992Z" fill="black"/>
<path d="M139.809 2.2536H139.638C139.696 2.06775 139.744 1.8664 139.784 1.70378C139.864 1.67281 139.939 1.62836 140.005 1.57213C140.016 1.56282 140.026 1.55245 140.035 1.54115C140.035 1.51792 140.035 1.48694 140.002 1.48694H139.958C139.905 1.49701 139.853 1.51125 139.802 1.52954C139.827 1.39014 139.845 1.24688 139.86 1.11136C139.919 1.08007 139.976 1.04516 140.031 1.00682C140.053 0.993047 140.071 0.974573 140.085 0.952607C140.085 0.952607 140.085 0.952607 140.085 0.929375C140.085 0.906143 140.067 0.894527 140.042 0.894527H140.02C139.967 0.907204 139.915 0.924028 139.864 0.944863C139.864 0.836447 139.864 0.731903 139.864 0.627358C139.929 0.604126 139.991 0.577022 140.056 0.557662C140.125 0.539738 140.194 0.525523 140.264 0.51507C140.342 0.504742 140.422 0.504742 140.5 0.51507C140.5 0.627358 140.5 0.747391 140.5 0.867423C140.434 0.895336 140.371 0.930365 140.311 0.971967C140.293 0.985641 140.276 1.0012 140.26 1.01843C140.26 1.04554 140.26 1.05715 140.289 1.05715C140.319 1.06264 140.35 1.06264 140.38 1.05715L140.486 1.03779C140.467 1.1888 140.446 1.34368 140.413 1.49856C140.343 1.5285 140.276 1.56478 140.213 1.60698C140.192 1.61857 140.174 1.63596 140.162 1.65731C140.162 1.68055 140.162 1.69216 140.191 1.69603C140.219 1.69946 140.247 1.69946 140.275 1.69603H140.38C140.333 1.89738 140.278 2.08323 140.213 2.30394C140.143 2.35161 140.072 2.39555 139.998 2.43559C139.981 2.44798 139.965 2.46225 139.951 2.47818C139.951 2.50141 139.951 2.52077 139.951 2.53239C139.969 2.53809 139.988 2.53809 140.005 2.53239C140.059 2.52152 140.112 2.50465 140.162 2.48205C140.089 2.69194 140.005 2.89746 139.911 3.0977C139.911 3.13642 139.882 3.16353 139.867 3.1945C139.743 3.15182 139.615 3.11946 139.485 3.0977L139.54 3.06673L139.595 3.02026C139.595 2.99703 139.595 2.98154 139.565 2.97767H139.525C139.481 2.97377 139.437 2.96335 139.395 2.94669C139.472 2.78515 139.538 2.61828 139.595 2.4472C139.656 2.43154 139.714 2.40677 139.769 2.37364C139.785 2.36655 139.8 2.35601 139.813 2.34266C139.828 2.33174 139.841 2.31871 139.853 2.30394C139.845 2.28071 139.853 2.2536 139.809 2.2536Z" fill="black"/>
<path d="M138.024 2.89613L138.046 2.82643C138.286 2.79115 138.531 2.82873 138.751 2.93485C138.781 2.95808 138.773 3.04327 138.85 3.01616C138.86 3.0135 138.87 3.00851 138.879 3.00151C138.888 2.99451 138.895 2.98564 138.901 2.97547C138.906 2.96529 138.91 2.95402 138.911 2.94237C138.912 2.93072 138.911 2.91893 138.908 2.90775C138.908 2.82643 138.802 2.56314 138.14 2.58637C138.191 2.46246 138.246 2.33082 138.304 2.19917C138.532 2.14923 138.769 2.16121 138.991 2.23402C139.031 2.23402 139.05 2.32694 139.126 2.28822C139.202 2.2495 139.181 2.21466 139.155 2.18368C139.13 2.1527 138.959 1.932 138.406 1.97459C138.435 1.92038 138.461 1.8623 138.486 1.81197C138.525 1.73311 138.569 1.65683 138.617 1.58352C138.781 1.55539 138.948 1.55539 139.111 1.58352C139.166 1.58352 139.221 1.63385 139.282 1.58352C139.344 1.53318 139.308 1.52157 139.282 1.50221C139.127 1.41446 138.952 1.37678 138.777 1.39379L138.806 1.35894C138.955 1.1928 139.125 1.04947 139.311 0.933021C139.377 0.886902 139.447 0.84675 139.519 0.812988C139.481 1.58405 139.307 2.34059 139.006 3.04327C138.752 3.02198 138.496 3.02198 138.242 3.04327L137.98 3.07811C137.992 3.01662 138.006 2.95586 138.024 2.89613Z" fill="black"/>
<path d="M132.772 14.7562C132.83 14.7291 132.892 14.7058 132.958 14.6826C132.942 14.7085 132.925 14.7331 132.907 14.7562C132.795 14.8818 132.673 14.9971 132.543 15.1008C132.61 14.9794 132.687 14.8641 132.772 14.7562Z" fill="black"/>
<path d="M133.147 16.0651H133.176H133.263C133.236 16.1929 133.215 16.3222 133.201 16.4523C133.165 16.4642 133.129 16.4797 133.096 16.4988L133.067 16.5181V16.5414C133.067 16.5414 133.067 16.5801 133.096 16.5801H133.208C133.203 16.6846 133.203 16.7893 133.208 16.8937C133.159 16.9148 133.113 16.9421 133.07 16.975V16.9944C133.07 16.9944 133.07 17.037 133.107 17.0331C133.144 17.0282 133.18 17.0191 133.216 17.006C133.224 17.0854 133.236 17.1643 133.252 17.2422L133.154 17.3042C133.14 17.3099 133.128 17.3209 133.121 17.3351C133.12 17.3428 133.12 17.3507 133.121 17.3584C133.121 17.3584 133.147 17.3816 133.168 17.3584C133.207 17.3539 133.245 17.3448 133.281 17.3313C133.281 17.3313 133.281 17.3661 133.281 17.3855C133.144 17.4258 133.002 17.4467 132.859 17.4474C132.859 17.4242 132.859 17.3971 132.859 17.3739C132.899 17.3579 132.937 17.3371 132.972 17.3119C132.984 17.306 132.994 17.2966 133.001 17.2848C133.001 17.2848 133.001 17.2577 132.983 17.2577H132.932H132.837C132.837 17.1764 132.812 17.0873 132.805 17.0022C132.848 16.9841 132.889 16.9621 132.928 16.9363C132.928 16.9363 132.954 16.917 132.957 16.9054C132.961 16.8937 132.957 16.8782 132.957 16.8782H132.91H132.819C132.81 16.7636 132.81 16.6483 132.819 16.5336C132.837 16.5143 132.899 16.4872 132.943 16.4562C132.95 16.4537 132.956 16.4496 132.961 16.4443C132.966 16.4389 132.97 16.4324 132.972 16.4252C132.972 16.4059 132.972 16.3942 132.954 16.3865H132.921L132.819 16.4175C132.837 16.2726 132.864 16.129 132.899 15.9877C132.945 15.9444 132.995 15.9068 133.048 15.8754H133.07C133.085 15.8681 133.096 15.8558 133.103 15.8405C133.106 15.8384 133.108 15.8356 133.11 15.8322C133.112 15.8288 133.113 15.825 133.113 15.8212C133.113 15.8174 133.112 15.8136 133.11 15.8102C133.108 15.8068 133.106 15.8039 133.103 15.8018H133.074C133.074 15.8018 133.03 15.8018 133.027 15.8018L132.939 15.8367C133.005 15.6184 133.084 15.405 133.176 15.1978C133.237 15.1475 133.31 15.1358 133.376 15.0778C133.388 15.0706 133.398 15.0599 133.405 15.0468C133.407 15.0428 133.409 15.0381 133.409 15.0332C133.409 15.0284 133.407 15.0236 133.405 15.0197C133.379 15.0161 133.354 15.0161 133.328 15.0197L133.234 15.0507L133.325 14.8803C133.361 14.8067 133.401 14.7293 133.445 14.6518C133.584 14.6058 133.727 14.5683 133.87 14.5396C133.816 14.6402 133.757 14.7409 133.71 14.8454C133.663 14.95 133.576 15.132 133.521 15.2675L133.441 15.2868C133.429 15.2839 133.417 15.2839 133.405 15.2868L133.365 15.314C133.355 15.3223 133.348 15.3329 133.343 15.3449C133.343 15.3449 133.343 15.3682 133.343 15.3759C133.376 15.3918 133.412 15.4023 133.448 15.4069C133.388 15.5687 133.337 15.7342 133.296 15.9025L133.208 15.9257L133.168 15.9451H133.139C133.128 15.9526 133.119 15.9634 133.114 15.9761C133.114 15.9761 133.114 16.0651 133.147 16.0651Z" fill="black"/>
<path d="M134.62 14.954C134.3 15.0082 134.188 14.8224 134.166 14.7488C134.144 14.6752 134.166 14.6597 134.122 14.6713C134.107 14.6771 134.095 14.6878 134.086 14.7017C134.078 14.7157 134.074 14.7322 134.075 14.7488C134.075 14.8224 134.02 15.1553 134.533 15.1708C134.508 15.2328 134.486 15.287 134.471 15.3335L134.435 15.4303L134.391 15.558C134.391 15.558 134.391 15.589 134.391 15.6045C134.064 15.6936 133.933 15.5232 133.9 15.4574C133.868 15.3915 133.9 15.3799 133.857 15.3954C133.844 15.3998 133.834 15.409 133.827 15.4211C133.82 15.4332 133.818 15.4474 133.82 15.4612C133.82 15.5232 133.802 15.8175 134.293 15.802H134.311C134.3 15.8297 134.288 15.8568 134.275 15.8833C134.243 15.9762 134.211 16.0653 134.177 16.1505C134.101 16.1709 134.022 16.171 133.946 16.1507C133.871 16.1304 133.801 16.0904 133.744 16.0343C133.722 16.0343 133.722 15.9685 133.678 15.984C133.673 15.9864 133.667 15.9902 133.663 15.9949C133.659 15.9997 133.656 16.0054 133.654 16.0116C133.651 16.0178 133.651 16.0245 133.651 16.0311C133.652 16.0376 133.654 16.044 133.657 16.0498C133.657 16.1001 133.722 16.3247 134.118 16.3208L134.024 16.5764C133.905 16.5906 133.785 16.5634 133.682 16.4989C133.657 16.4989 133.642 16.4447 133.606 16.4602C133.601 16.4634 133.598 16.4677 133.595 16.4728C133.592 16.4778 133.591 16.4835 133.591 16.4893C133.591 16.495 133.592 16.5007 133.595 16.5057C133.598 16.5108 133.601 16.5151 133.606 16.5183C133.645 16.5819 133.699 16.6334 133.763 16.6674C133.827 16.7014 133.898 16.7168 133.969 16.7119C133.939 16.7886 133.902 16.8624 133.86 16.9326C133.806 16.9294 133.754 16.9163 133.704 16.8939C133.675 16.8939 133.657 16.8513 133.62 16.8706C133.584 16.89 133.598 16.9055 133.62 16.921C133.661 16.9724 133.714 17.0123 133.773 17.0371C133.702 17.1356 133.616 17.2207 133.518 17.2888C133.329 16.5802 133.518 15.74 133.955 14.8224L134.1 14.5436C134.109 14.5287 134.119 14.5145 134.129 14.501C134.327 14.5467 134.512 14.6394 134.671 14.772C134.657 14.8417 134.639 14.8998 134.62 14.954Z" fill="black"/>
</svg>
