<svg width="9" height="15" viewBox="0 0 9 15" fill="none" xmlns="http://www.w3.org/2000/svg">
<path d="M7.94404 0.003121L5.99522 0C3.80579 0 2.39088 1.44892 2.39088 3.69152V5.39356H0.431433C0.262113 5.39356 0.125 5.53057 0.125 5.69957V8.16563C0.125 8.33463 0.262269 8.47149 0.431433 8.47149H2.39088V14.6941C2.39088 14.8631 2.528 15 2.69731 15H5.25384C5.42316 15 5.56027 14.863 5.56027 14.6941V8.47149H7.85133C8.02064 8.47149 8.15776 8.33463 8.15776 8.16563L8.1587 5.69957C8.1587 5.61843 8.12633 5.54071 8.06895 5.48329C8.01158 5.42586 7.93341 5.39356 7.85211 5.39356H5.56027V3.95072C5.56027 3.25723 5.72584 2.90518 6.63091 2.90518L7.94372 2.90472C8.11289 2.90472 8.25 2.7677 8.25 2.59886V0.308979C8.25 0.140289 8.11304 0.0034331 7.94404 0.003121Z" fill="#014170"/>
</svg>
