<svg width="99" height="18" viewBox="0 0 99 18" fill="none" xmlns="http://www.w3.org/2000/svg">
<path fill-rule="evenodd" clip-rule="evenodd" d="M29.4445 0L25.9416 2.02568V3.13129H30.4917V0H29.4445ZM93.6913 4.21098C92.6463 4.21098 91.3881 4.31786 90.6675 4.37908C90.3784 4.40364 90.1759 4.42084 90.1084 4.42084V17.5255H93.0113V13.0528C93.4349 13.1229 93.8635 13.158 94.2927 13.1578C96.9599 13.1578 99 11.3952 99 8.71098C99 5.65876 96.7514 4.21098 93.6913 4.21098ZM93.9541 10.711C93.6337 10.7184 93.3146 10.6669 93.0126 10.5589V6.84358C93.1637 6.81773 93.6669 6.81773 93.9541 6.81773C95.2355 6.81773 96.0984 7.44885 96.0984 8.76434C96.0984 10.0281 95.2098 10.711 93.9541 10.711ZM86.8685 12.9267H84.0699V14.8946H87.677V17.5255H81.2183V4.3677H87.47V6.99562H84.0699V10.3946H86.8685V12.9267ZM73.5063 10.8158V4.3677H70.6562V17.5255H73.5063V13.2673H74.0291L77.3763 17.5255H78.5853V14.4733C78.3564 14.1596 78.0987 13.8125 77.8383 13.4619L77.8377 13.4611L77.8366 13.4595C77.4425 12.9287 77.0426 12.3901 76.728 11.9473C77.0696 10.9497 77.5335 9.50035 77.8251 8.49967L79.0537 4.3677H76.0677L74.1334 10.8143L73.5063 10.8158ZM36.8475 10.9466C36.8475 13.0528 38.5475 14.0261 39.5932 14.0261V7.86852C38.5445 7.86852 36.8475 8.84029 36.8475 10.9466ZM29.1035 17.527V13.8163L28.6396 13.8148L25.5538 17.5255H24.0109V4.3677H26.8821V6.36905C26.8821 7.73306 26.8035 10.0456 26.7491 11.6484L26.731 12.1845H27.2009L29.1035 9.69044V4.3677H31.9747V17.527H29.1035ZM1.85721 9.39544C1.85721 12.0264 1.51116 14.6315 0 15.1835V18C3.53006 17.632 4.62867 14.5266 4.62867 9.89426V6.69149H6.51157V17.5332H9.38277V4.36773H1.85721V9.39544ZM45.1339 10.9543C45.1339 8.848 43.4339 7.8747 42.3882 7.8747V14.0263C43.4339 14.0263 45.1339 13.0606 45.1339 10.9543ZM42.3894 16.3227C45.5266 16.3227 48.0381 14.1115 48.0381 10.9544C48.0381 7.7972 45.5281 5.58598 42.3894 5.58598V3.78994H39.5938V5.57838C36.4566 5.57838 33.9451 7.7896 33.9451 10.9467C33.9451 14.1039 36.4551 16.3151 39.5938 16.3151V17.8937H42.3894V16.3227ZM50.7754 4.3677C51.3572 5.42161 52.1355 6.84354 52.6644 7.902L53.2144 7.8944C53.6879 6.94136 54.3758 5.68526 54.9291 4.675L55.0973 4.3677H56.3516V7.97348L54.7044 10.7109L56.5828 13.8954V17.527H55.327L53.2114 13.5274H52.6629L50.5473 17.527H49.2915V13.8954L51.1668 10.7109L49.5197 7.97348V4.3677H50.7754ZM65.5853 4.3677H61.1123L57.6079 17.5255H60.5365L61.1123 15.2079H65.5853L66.161 17.524H69.0896L65.5853 4.3677ZM61.7391 12.7898H64.9548L63.5963 7.23743H63.0734L61.7391 12.7898ZM18.933 4.3677H14.4615L10.9572 17.5255H13.8858L14.4615 15.2079H18.933L19.5088 17.524H22.4374L18.933 4.3677ZM15.0882 12.7898H18.3055L16.9454 7.23743H16.4226L15.0882 12.7898Z" fill="white"/>
</svg>
