<svg width="15" height="13" viewBox="0 0 15 13" fill="none" xmlns="http://www.w3.org/2000/svg">
<path d="M14.375 2.26655C13.8459 2.5027 13.2782 2.66284 12.6818 2.73434C13.2908 2.36699 13.757 1.78431 13.9779 1.09214C13.4067 1.43234 12.7761 1.67936 12.1041 1.81327C11.5661 1.23511 10.8008 0.875 9.95189 0.875C8.32333 0.875 7.00287 2.20504 7.00287 3.84452C7.00287 4.07704 7.02892 4.30414 7.07923 4.52131C4.62876 4.39734 2.45585 3.21479 1.00155 1.41786C0.747337 1.85579 0.602717 2.36606 0.602717 2.91077C0.602717 3.94133 1.12372 4.85064 1.9142 5.38264C1.43093 5.36636 0.976398 5.23245 0.578477 5.00987V5.04697C0.578477 6.48558 1.59532 7.68623 2.94362 7.95949C2.69659 8.02645 2.4361 8.06354 2.16661 8.06354C1.97619 8.06354 1.79204 8.04454 1.61148 8.00835C1.98695 9.1891 3.07567 10.0477 4.36559 10.0713C3.35683 10.8675 2.08487 11.3407 0.703343 11.3407C0.465309 11.3407 0.230846 11.3262 0 11.3C1.30519 12.1442 2.85471 12.6364 4.5201 12.6364C9.94475 12.6364 12.9099 8.1106 12.9099 4.18563L12.9001 3.8011C13.4794 3.38487 13.9806 2.86191 14.375 2.26655Z" fill="#014170"/>
</svg>
