<svg width="19" height="11" viewBox="0 0 19 11" fill="none" xmlns="http://www.w3.org/2000/svg">
<path d="M18.2392 9.68002C18.218 9.63428 18.1983 9.59634 18.1799 9.56595C17.8763 9.01826 17.2961 8.34602 16.4396 7.54903L16.4215 7.53078L16.4125 7.52183L16.4033 7.51265H16.3941C16.0054 7.14153 15.7593 6.892 15.6562 6.76424C15.4676 6.52088 15.4253 6.27454 15.5284 6.02494C15.6012 5.83636 15.8748 5.4381 16.3484 4.82963C16.5976 4.50715 16.7949 4.2487 16.9406 4.05398C17.9916 2.65465 18.4472 1.76045 18.3074 1.37105L18.2531 1.28005C18.2167 1.22527 18.1225 1.17515 17.9708 1.12944C17.8188 1.08383 17.6245 1.07629 17.3875 1.10669L14.7635 1.12484C14.721 1.10975 14.6603 1.11116 14.5812 1.12944C14.5022 1.14773 14.4627 1.1569 14.4627 1.1569L14.417 1.17975L14.3808 1.20721C14.3504 1.22536 14.317 1.2573 14.2805 1.30294C14.2442 1.34842 14.2139 1.4018 14.1896 1.46262C13.9039 2.19876 13.5791 2.88318 13.2146 3.51586C12.9898 3.89311 12.7834 4.22006 12.5949 4.49689C12.4066 4.77363 12.2487 4.97752 12.1212 5.10821C11.9935 5.23904 11.8783 5.34384 11.7749 5.42302C11.6716 5.50222 11.5927 5.53569 11.5381 5.52344C11.4834 5.5112 11.4318 5.49906 11.383 5.48691C11.2981 5.43213 11.2297 5.35762 11.1782 5.26333C11.1264 5.16904 11.0915 5.05036 11.0733 4.90739C11.0552 4.76433 11.0445 4.64127 11.0414 4.5378C11.0386 4.43447 11.0399 4.2883 11.046 4.09972C11.0524 3.91104 11.0552 3.78338 11.0552 3.71645C11.0552 3.48523 11.0597 3.23429 11.0687 2.96357C11.0779 2.69284 11.0854 2.47834 11.0916 2.32032C11.0978 2.16213 11.1006 1.99477 11.1006 1.81834C11.1006 1.6419 11.0899 1.50354 11.0687 1.40311C11.0478 1.30281 11.0157 1.20545 10.9733 1.11106C10.9307 1.01677 10.8683 0.943835 10.7865 0.892055C10.7045 0.840339 10.6026 0.799299 10.4813 0.768806C10.1593 0.695835 9.74933 0.656361 9.25113 0.650224C8.12137 0.638078 7.39543 0.711145 7.07349 0.86933C6.94593 0.936164 6.8305 1.02748 6.7273 1.143C6.61793 1.27689 6.60267 1.34996 6.68163 1.36197C7.04614 1.41666 7.30419 1.54749 7.45607 1.75432L7.5108 1.86392C7.55337 1.94299 7.59588 2.08299 7.63842 2.28372C7.6809 2.48445 7.70831 2.70649 7.72038 2.94973C7.75069 3.39392 7.75069 3.77415 7.72038 4.09045C7.68996 4.40688 7.66124 4.65322 7.63383 4.82966C7.60641 5.00609 7.56544 5.14906 7.5108 5.25853C7.45607 5.36804 7.41966 5.43497 7.4014 5.45926C7.38318 5.48355 7.36799 5.49886 7.35593 5.50487C7.27697 5.53517 7.19486 5.55061 7.10987 5.55061C7.02476 5.55061 6.92155 5.50797 6.80009 5.42276C6.67866 5.33755 6.55263 5.2205 6.42201 5.07142C6.29139 4.92232 6.14408 4.71395 5.98001 4.44629C5.81607 4.17864 5.64597 3.8623 5.46981 3.49728L5.32406 3.23257C5.23295 3.06227 5.10849 2.8143 4.95055 2.48889C4.79251 2.16335 4.65283 1.84845 4.5314 1.54426C4.48286 1.4165 4.40994 1.31924 4.31276 1.25231L4.26716 1.22485C4.23684 1.20056 4.18817 1.17477 4.12141 1.14728C4.05455 1.11982 3.98479 1.10013 3.91183 1.08802L1.41528 1.10617C1.16016 1.10617 0.987066 1.16406 0.895922 1.27967L0.859445 1.33436C0.841222 1.36482 0.832031 1.41347 0.832031 1.48043C0.832031 1.54736 0.850254 1.6295 0.886731 1.72677C1.25118 2.58465 1.64751 3.41201 2.07573 4.20897C2.50394 5.00593 2.87605 5.64791 3.19183 6.13432C3.50768 6.62108 3.82962 7.08048 4.15766 7.5123C4.4857 7.94428 4.70284 8.22111 4.80908 8.34273C4.91544 8.46457 4.99899 8.55566 5.05973 8.61649L5.28756 8.83547C5.43334 8.98151 5.64741 9.15641 5.92988 9.36017C6.2124 9.56406 6.52519 9.76479 6.86838 9.96267C7.21165 10.1602 7.61098 10.3215 8.0666 10.4461C8.52217 10.571 8.96557 10.621 9.39688 10.5969H10.4447C10.6572 10.5785 10.8182 10.5116 10.9277 10.3961L10.9639 10.3503C10.9883 10.314 11.0111 10.2576 11.0322 10.1817C11.0535 10.1056 11.0641 10.0219 11.0641 9.93074C11.0579 9.66919 11.0778 9.43346 11.1232 9.22359C11.1686 9.01379 11.2204 8.8556 11.2783 8.74907C11.3361 8.64264 11.4014 8.55282 11.4741 8.48001C11.5469 8.40704 11.5988 8.36283 11.6293 8.34762C11.6595 8.33231 11.6837 8.32192 11.7019 8.31569C11.8477 8.26704 12.0192 8.31415 12.2168 8.45725C12.4143 8.60022 12.5995 8.77675 12.7727 8.98656C12.9458 9.19655 13.1539 9.43215 13.3968 9.6937C13.6399 9.95535 13.8524 10.1498 14.0346 10.2778L14.2167 10.3873C14.3384 10.4604 14.4963 10.5273 14.6907 10.5881C14.8848 10.6489 15.0548 10.6641 15.2008 10.6337L17.5333 10.5973C17.764 10.5973 17.9435 10.559 18.0708 10.4831C18.1984 10.4071 18.2742 10.3233 18.2987 10.2322C18.3231 10.141 18.3244 10.0375 18.3033 9.92176C18.2817 9.80634 18.2604 9.72563 18.2392 9.68002Z" fill="#014170"/>
</svg>
